<svg xmlns="http://www.w3.org/2000/svg" xmlns:xlink="http://www.w3.org/1999/xlink" width="24" height="24" viewBox="0 0 24 24">
    <defs>
        <path id="a" d="M3.51 3.51c4.682-4.68 12.299-4.68 16.98 0 4.68 4.681 4.68 12.298 0 16.979-4.146 4.145-10.593 4.617-15.264 1.42l.998-.998c4.114 2.668 9.682 2.201 13.285-1.402 4.14-4.14 4.14-10.878 0-15.018C15.37.35 8.632.35 4.491 4.49.35 8.63.35 15.369 4.49 19.509c.174.174.354.338.536.497l-.982.983c-.182-.16-.36-.326-.534-.5-4.681-4.68-4.681-12.298 0-16.978zm4.582 3.261l4.095 4.2 3.952-4.054.98 1.006-3.952 4.052 3.564 3.654-.981 1.005-3.563-3.653-3.705 3.799-.98-1.005 3.704-3.8-4.095-4.198.981-1.006z"/>
    </defs>
    <g fill="none" fill-rule="evenodd">
        <mask id="b" fill="#fff">
            <use xlink:href="#a"/>
        </mask>
        <use fill="#13112B" xlink:href="#a"/>
        <g fill="#1A1446" mask="url(#b)">
            <path d="M-38-38H62V62H-38z"/>
        </g>
    </g>
</svg>
