<svg xmlns="http://www.w3.org/2000/svg" xmlns:xlink="http://www.w3.org/1999/xlink" width="24" height="24" style="background:#fff" viewBox="0 0 24 24">
    <defs>
        <path id="a" d="M12.79 11.076v8.007l1.122-1.166 1.003.963-2.8 2.913-3.01-2.891.964-1.003 1.33 1.279v-8.102h1.391zM12.008.167a7.444 7.444 0 0 1 7.447 6.78l.024.257.256.024c.143.012.283.035.422.06l.031.006c.287.055.565.135.832.24.129.05.25.105.37.164l.048.024c.246.126.48.27.699.436l.023.018a4.724 4.724 0 0 1 1.461 1.857l-.013.005c.25.578.392 1.214.392 1.884 0 2.6-2.117 4.717-4.718 4.717h-4.581v-1.39h4.581A3.33 3.33 0 0 0 21.764 9.7l-.048-.052a3.268 3.268 0 0 0-.378-.346l-.037-.03c-.056-.042-.114-.08-.173-.12a3.093 3.093 0 0 0-.146-.09c-.057-.034-.113-.067-.172-.097a3.218 3.218 0 0 0-.46-.191 3.144 3.144 0 0 0-.66-.149c-.033-.003-.065-.01-.097-.013V8.61l-1.391-.128-.132-1.406a6.06 6.06 0 0 0-6.062-5.52 6.059 6.059 0 0 0-6.063 5.52l-.131 1.406-1.407.129a3.308 3.308 0 0 0-3.017 3.31 3.33 3.33 0 0 0 3.328 3.326H9.62v1.39H4.718A4.723 4.723 0 0 1 0 11.923c0-2.452 1.84-4.47 4.28-4.695l.257-.024.024-.255a7.443 7.443 0 0 1 7.447-6.78z"/>
    </defs>
    <g fill="none" fill-rule="evenodd">
        <path fill="#FFF" d="M0 0h24v24H0z"/>
        <g transform="translate(0 .833)">
            <mask id="b" fill="#fff">
                <use xlink:href="#a"/>
            </mask>
            <use fill="#12152D" xlink:href="#a"/>
            <g fill="#1A1446" mask="url(#b)">
                <path d="M-38-40H62V60H-38z"/>
            </g>
        </g>
    </g>
</svg>
