<svg xmlns="http://www.w3.org/2000/svg" width="35" height="45" viewBox="0 0 35 45">
    <g fill="none" fill-rule="evenodd">
        <path fill="#99E5EA" d="M19.329 42.206c5.267-1.321 7.9-2.917 7.9-4.786V20.372c2.366-.457 3.947-.278 4.742.538.796.816 1.188 2.216 1.175 4.2.545 9.483.545 14.774 0 15.872-.817 1.648-3.517 2.058-4.952 2.058-.958 0-3.913-.278-8.865-.834z"/>
        <path fill="#1A1446" d="M5.069 18.808h24.368a5.075 5.075 0 0 1 5.064 4.85l.005.22v15.32a5.075 5.075 0 0 1-4.85 5.065l-.219.005H5.069a5.075 5.075 0 0 1-5.064-4.85L0 39.198v-15.32a5.075 5.075 0 0 1 4.85-5.065l.219-.005h24.368zm24.368 2.535H5.069a2.538 2.538 0 0 0-2.53 2.368l-.004.166V39.2a2.538 2.538 0 0 0 2.368 2.529l.166.005h24.368a2.537 2.537 0 0 0 2.53-2.368l.004-.166V23.877a2.537 2.537 0 0 0-2.534-2.534zm-12.028 4.314a2.71 2.71 0 0 1 2.711 2.71c0 .953-.498 1.783-1.24 2.264l-.153.092v6.697H16.15v-6.666a2.698 2.698 0 0 1-1.45-2.387 2.71 2.71 0 0 1 2.71-2.71zM19.164 0c5.406 0 9.803 4.396 9.803 9.802v6.91h-2.535v-6.91c0-4.008-3.26-7.267-7.268-7.267h-3.51c-4.008 0-7.267 3.26-7.267 7.267v7.006H5.852l.006-7.32C6.023 4.229 10.354 0 15.654 0z"/>
    </g>
</svg>
