<svg xmlns="http://www.w3.org/2000/svg" width="37" height="36" viewBox="0 0 37 36">
    <g fill="none" fill-rule="evenodd">
        <path fill="#99E5EA" d="M32.151 35.515l3.933-1.956-.656-1.636-1.094-.776-2.183-5.721-2.851 1.2 2.044 5.61-.216 1.038z"/>
        <path fill="#1A1446" d="M32.045 8.87a.9.9 0 0 1 1.182.47l3.635 8.455a.898.898 0 0 1-.472 1.182l-2.968 1.276a.9.9 0 0 1-1.183-.471l-.318-.74-2.712 1.182 1.888 4.838.304-.12c.653-.253 1.321.043 1.552.637l.322.809.13.31.658 1.7.024-.008.867 2.137c.08.208.214.353.368.414.49.178.935.643 1.162 1.229l.16.41c.158.41.155.859-.009 1.26-.17.42-.493.74-.908.9l-2.89 1.12c-.4.156-.836.144-1.233-.031l-.043-.02a1.705 1.705 0 0 1-.857-.927l-.159-.41c-.212-.547-.183-1.22.074-1.714.076-.152.004-.392-.046-.521l-.87-2.15-1.11-2.818a1.153 1.153 0 0 1 .658-1.493l.41-.158-1.892-4.768-.748-1.634 5.581-2.46.831 1.922 1.824-.79-3.185-7.354-1.823.79.246.568.404.93.311.72-8.969 3.885-.312-.72-.403-.931-.246-.568-1.823.789 2.371 5.475.715 1.653.098.226 1.823-.79-.39-.902v-.001l-.433-.997 2.367-1.025.715 1.652-.949.41.324.74a.9.9 0 0 1-.464 1.187l-2.96 1.292a.898.898 0 0 1-1.186-.465l-3.679-8.435a.9.9 0 0 1 .465-1.185l2.961-1.292a.9.9 0 0 1 1.184.465l.51 1.164 6.177-2.676-.5-1.167a.9.9 0 0 1 .471-1.181zm-28.55 3.432c.473.185.97.322 1.487.399l.312.038v20.807l18.55.161v-7.556h1.8v8.464a.901.901 0 0 1-.782.893l-.118.007h-.008l-19.944-.174a1.305 1.305 0 0 1-1.29-1.171l-.008-.134V12.302zm28.022 14.015l-1.388.538.27.688 1.664 4.104c.26.669.252 1.3-.017 1.838a.596.596 0 0 0-.007.408l.16.41c.02.05.057.063.063.063l2.886-1.12c.004-.005.02-.04.001-.087l-.159-.41c-.066-.168-.164-.283-.23-.308a2.277 2.277 0 0 1-1.297-1.326l-1.627-4.018-.319-.78zm-9.965.062v1.8H7.4v-1.8h14.152zm-3.6-6.18v1.8H7.398v-1.8h10.552zm-1.8-6.18v1.8H7.398v-1.8h8.752zm8.187-8.876c.675 0 1.232.515 1.299 1.172l.006.133v6h-1.8V6.942h-11.17c.043-.311.074-.628.074-.954 0-.19-.01-.38-.028-.566l-.03-.28h11.65zM5.99 0c2.984 0 5.505 2.231 5.885 5.144.036.277.06.558.055.846 0 .318-.034.636-.084.954-.021.127-.036.255-.064.383a4.733 4.733 0 0 1-.594 1.583c-.99 1.832-2.97 3.07-5.198 3.07-.236 0-.466-.017-.694-.042a5.938 5.938 0 0 1-1.8-.481 5.68 5.68 0 0 1-1.367-.864c-.445-.346-.792-.791-1.089-1.237A6.022 6.022 0 0 1 0 5.99 5.979 5.979 0 0 1 5.989 0zm.876 2.48h-1.8v2.61H2.423v1.8h2.642V9.5h1.8V6.89h2.578v-1.8H6.865V2.48z"/>
    </g>
</svg>
