<svg xmlns="http://www.w3.org/2000/svg" width="64" height="64" viewBox="0 0 64 64">
    <g fill="none" fill-rule="evenodd">
        <circle cx="32" cy="32" r="32" fill="#F0FBFC"/>
        <path fill="#1A1446" d="M32.226 18c1.493 0 2.706 1.252 2.706 2.79h2.886c.488 0 .883.405.883.903v.384h2.21c.28.012.554.112.76.322.21.211.329.507.329.81v21.659c0 .624-.488 1.132-1.087 1.132H24.716v-1.51h15.809V23.588l-17.05-.007-.005 22.406h-.384c-.6 0-1.086-.508-1.086-1.132V23.203c0-.625.487-1.132 1.086-1.132h2.334v-.378c0-.498.395-.902.882-.902h3.217c0-1.54 1.215-2.791 2.707-2.791zm3.712 10.843l1.199.879-5.646 8.055a1.18 1.18 0 0 1-.955.494c-.24 0-.482-.075-.69-.23L26.3 35.386l.87-1.218 3.304 2.472 5.465-7.797zm-3.712-9.334c-.68 0-1.232.575-1.232 1.282 0 .706.553 1.28 1.232 1.28.679 0 1.231-.574 1.231-1.28 0-.707-.552-1.282-1.23-1.282z"/>
    </g>
</svg>
