<svg xmlns="http://www.w3.org/2000/svg" width="44" height="28" viewBox="0 0 44 28">
    <g fill="none" fill-rule="evenodd">
        <circle cx="17" cy="9" r="4" fill="#99E5EA"/>
        <path fill="#1A1446" d="M35.21 4.854h2.42c.598 0 1.092.454 1.155 1.035l.007.126v3.006h3.419c.598 0 1.092.454 1.155 1.034l.007.126v16.533c0 .598-.454 1.091-1.036 1.155l-.126.006H10.294A1.163 1.163 0 0 1 9.14 26.84l-.007-.126v-3.548H6.256a1.163 1.163 0 0 1-1.154-1.035l-.007-.126v-2.458h2.323v1.297h29.05V7.176H35.21V4.854h2.421zm5.84 6.488h-2.258v10.663c0 .597-.454 1.091-1.035 1.154l-.127.007H11.456v2.386h29.593v-14.21zM1.114 0h31.238c.574 0 1.048.435 1.108.993l.007.122v15.587c0 .573-.435 1.046-.993 1.107l-.122.006H1.115a1.116 1.116 0 0 1-1.108-.992L0 16.702V1.115C0 .54.435.067.993.007L1.115 0h31.238zm26.463 2.23H5.922a4.117 4.117 0 0 1-3.489 3.333l-.204.023v6.553A4.154 4.154 0 0 1 5.9 15.39l.038.196h21.625a4.163 4.163 0 0 1 3.48-3.423l.197-.024V5.583a4.12 4.12 0 0 1-3.66-3.354zM17.19 4.001A5.074 5.074 0 0 1 22.26 9.07a5.074 5.074 0 0 1-5.069 5.069 5.074 5.074 0 0 1-5.068-5.069 5.074 5.074 0 0 1 5.068-5.068zm0 2.412a2.66 2.66 0 0 0-2.656 2.656 2.66 2.66 0 0 0 2.656 2.657 2.66 2.66 0 0 0 2.657-2.657 2.66 2.66 0 0 0-2.657-2.656z"/>
    </g>
</svg>
