<svg xmlns="http://www.w3.org/2000/svg" xmlns:xlink="http://www.w3.org/1999/xlink" width="16" height="16" viewBox="0 0 16 16">
    <defs>
        <path id="a" d="M7.024 14.907v.946H0v-.946h7.024zm0-2.059v.946H0v-.946h7.024zm3.804-9.857A5.182 5.182 0 0 1 16 8.163a5.178 5.178 0 0 1-5.172 5.171 5.171 5.171 0 1 1 0-10.343zm0 .946a4.225 4.225 0 0 0-4.226 4.226 4.23 4.23 0 0 0 4.226 4.226 4.23 4.23 0 0 0 4.226-4.226 4.233 4.233 0 0 0-4.226-4.226zM5.401 10.79c.12.25.258.49.412.72l.157.226H0v-.946h5.4zm5.839-5.995v.688l1.256-.002.002.854-1.256.002.005 1.245a1.48 1.48 0 0 1 1.48 1.474c0 .394-.153.764-.431 1.044a1.465 1.465 0 0 1-.896.427l-.147.008h-.003l.002.668-.854.002-.002-.669-1.167.003-.001-.854 1.167-.003-.003-1.245a1.478 1.478 0 0 1-1.42-1.473 1.48 1.48 0 0 1 1.278-1.466l.137-.012-.002-.69h.855zm.01 3.641h-.004l.006 1.244a.614.614 0 0 0 .439-.183.623.623 0 0 0-.44-1.06zm-6.42.296c.02.215.05.427.093.636l.07.31H0v-.946h4.83zm.158-2.059a5.946 5.946 0 0 0-.123.625l-.037.321H0v-.946h4.988zm5.4-.331a.623.623 0 0 0-.09 1.223l.092.016-.002-1.24zM5.956 4.615a6.097 6.097 0 0 0-.44.699l-.125.247H0v-.946h5.956zm1.068-2.058v.946H0v-.946h7.024zm0-2.059v.946H0V.498h7.024z"/>
    </defs>
    <g fill="none" fill-rule="evenodd" transform="translate(0 -.498)">
        <mask id="b" fill="#fff">
            <use xlink:href="#a"/>
        </mask>
        <use fill="#13112B" xlink:href="#a"/>
        <g fill="#FFF" mask="url(#b)">
            <path d="M-25.333-25.333h67v67h-67z"/>
        </g>
    </g>
</svg>
