<svg xmlns="http://www.w3.org/2000/svg" xmlns:xlink="http://www.w3.org/1999/xlink" width="24" height="26" viewBox="0 0 24 26">
    <defs>
        <path id="a" d="M22.667 0C23.403 0 24 .597 24 1.333V24c0 .736-.597 1.333-1.333 1.333H1.333A1.333 1.333 0 0 1 0 24V1.333C0 .597.597 0 1.333 0h21.334zm0 1.333H1.333V24h21.334V1.333zM12.622 2.667v2.219h4.01v1.401h-4.048v5.295h.662a4.087 4.087 0 0 1 .204 8.17l-.204.005h-.662v2.88h-1.402v-2.88H7.445v-1.402h3.737v-5.333h-.467a4.021 4.021 0 0 1-4.048-4.049c0-2.19 1.72-3.976 3.883-4.082l.204-.005h.467v-2.22h1.401zm.663 10.355h-.663v5.372h.663a2.692 2.692 0 0 0 2.686-2.686 2.692 2.692 0 0 0-2.686-2.686zm-2.103-6.735h-.467c-1.479 0-2.686 1.168-2.686 2.647a2.692 2.692 0 0 0 2.517 2.681l.17.005h.466V6.287z"/>
    </defs>
    <g fill="none" fill-rule="evenodd">
        <mask id="b" fill="#fff">
            <use xlink:href="#a"/>
        </mask>
        <use fill="#1A1446" fill-rule="nonzero" xlink:href="#a"/>
        <g fill="#1A1446" fill-rule="nonzero" mask="url(#b)">
            <path d="M-54.667-52h135V77h-135z"/>
        </g>
    </g>
</svg>
