<svg xmlns="http://www.w3.org/2000/svg" xmlns:xlink="http://www.w3.org/1999/xlink" width="16" height="16" viewBox="0 0 16 16">
    <defs>
        <path id="a" d="M8 0c4.411 0 8 3.589 8 8 0 4.41-3.589 8-8 8C4.093 16 .834 13.185.139 9.477h.94c.682 3.195 3.525 5.6 6.921 5.6A7.085 7.085 0 0 0 15.077 8 7.085 7.085 0 0 0 8 .923 7.084 7.084 0 0 0 .942 8.487H.016A8.051 8.051 0 0 1 0 8c0-4.411 3.589-8 8-8zm-.139 10.876a.578.578 0 1 1 0 1.155.578.578 0 0 1 0-1.155zm-.018-6.948a2.387 2.387 0 0 1 2.384 2.384A2.388 2.388 0 0 1 8.305 8.65v1.577h-.923V8.233c0-.255.206-.461.461-.461.806 0 1.46-.655 1.46-1.46 0-.806-.654-1.461-1.46-1.461-.805 0-1.46.655-1.46 1.46H5.46a2.386 2.386 0 0 1 2.383-2.383z"/>
    </defs>
    <g fill="none" fill-rule="evenodd">
        <mask id="b" fill="#fff">
            <use xlink:href="#a"/>
        </mask>
        <use fill="#13112B" xlink:href="#a"/>
        <g fill="#FFF" mask="url(#b)">
            <path d="M-25.333-25.333h67v67h-67z"/>
        </g>
    </g>
</svg>
