<svg xmlns="http://www.w3.org/2000/svg" xmlns:xlink="http://www.w3.org/1999/xlink" width="27" height="29" viewBox="0 0 27 29">
    <defs>
        <path id="a" d="M23.989 4.015a13.323 13.323 0 0 1 3.93 9.488c0 3.586-1.395 6.955-3.93 9.489-3.37 3.373-8.327 4.702-12.943 3.478a11.77 11.77 0 0 1-.644-.185l.72-2.245a11.092 11.092 0 0 0 11.2-2.715 10.977 10.977 0 0 0 3.24-7.822c0-2.956-1.15-5.732-3.24-7.82-4.315-4.318-11.334-4.314-15.645 0a10.981 10.981 0 0 0-3.24 7.82c0 2.955 1.15 5.733 3.24 7.821.267.269.388.646.332 1.017l-.37 2.37 1.418-1.24c.364-.323.89-.383 1.321-.158.169.089.234.121.406.2l-.578 1.271.005.006-.696 1.41-2.764 2.416a1.177 1.177 0 0 1-1.94-1.07l.78-4.995a13.313 13.313 0 0 1-3.509-9.048c0-3.585 1.394-6.954 3.93-9.488 5.234-5.229 13.748-5.23 18.977 0zm-8.29 15.674v2.24h-2.62v-2.24h2.62zM14.652 5.676c3.239 0 4.712 2.331 4.712 4.495 0 1.862-.621 3.076-2.378 4.64-1.005.898-1.328 1.494-1.328 2.45v.876H13.12V17.13c0-1.142.268-2.438 2.228-4.18 1.308-1.176 1.415-1.945 1.415-2.755 0-.083-.025-2.048-2.135-2.048-1.404 0-2.184.732-2.452 2.3l-.103.602h-2.47l.052-.772c.108-1.708 1.288-4.6 4.995-4.6z"/>
    </defs>
    <g fill="none" fill-rule="evenodd" transform="translate(-1)">
        <mask id="b" fill="#fff">
            <use xlink:href="#a"/>
        </mask>
        <use fill="#1A1446" fill-rule="nonzero" xlink:href="#a"/>
        <g fill="#1A1446" fill-rule="nonzero" mask="url(#b)">
            <path d="M-3.625-3.625h36v36h-36z"/>
        </g>
    </g>
</svg>
