<?xml version="1.0" standalone="no"?>
<!DOCTYPE svg PUBLIC "-//W3C//DTD SVG 20010904//EN"
 "http://www.w3.org/TR/2001/REC-SVG-20010904/DTD/svg10.dtd">
<svg version="1.0" xmlns="http://www.w3.org/2000/svg"
 width="400.000000pt" height="400.000000pt" viewBox="0 0 400.000000 400.000000"
 preserveAspectRatio="xMidYMid meet">
<metadata>
Created by potrace 1.11, written by Peter Selinger 2001-2013
</metadata>
<g transform="translate(0.000000,400.000000) scale(0.100000,-0.100000)"
fill="#000000" stroke="none">
<path d="M1011 3740 c-6 -3 -10 -56 -10 -118 1 -63 -2 -116 -5 -119 -3 -3 -60
-6 -125 -6 l-120 0 0 -1497 -1 -1498 120 1 c66 0 123 -2 126 -6 3 -3 6 -59 5
-125 l-1 -118 1123 0 1122 1 1 118 c1 65 5 121 8 124 3 3 59 6 124 5 l119 0
-1 1497 -1 1496 -123 0 -122 0 -1 105 c-1 58 -1 114 0 126 l2 20 -1115 0
c-614 0 -1120 -2 -1125 -6z"/>
</g>
</svg>
